<?xml version="1.0" encoding="UTF-8" standalone="no" ?>
<!DOCTYPE svg PUBLIC "-//W3C//DTD SVG 1.1//EN" "http://www.w3.org/Graphics/SVG/1.1/DTD/svg11.dtd">
<svg xmlns="http://www.w3.org/2000/svg" xmlns:xlink="http://www.w3.org/1999/xlink" version="1.1" width="1080" height="1080" viewBox="0 0 1080 1080" xml:space="preserve">
<desc>Created with Fabric.js 5.2.4</desc>
<defs>
</defs>
<g transform="matrix(1 0 0 1 540 540)" id="bca2c301-b39b-40bb-8132-1c5b1f9dcd74"  >
</g>
<g transform="matrix(1 0 0 1 540 540)" id="4ea873e0-b072-406e-b26d-0dd6bdbdbe95"  >
<rect style="stroke: none; stroke-width: 1; stroke-dasharray: none; stroke-linecap: butt; stroke-dashoffset: 0; stroke-linejoin: miter; stroke-miterlimit: 4; fill: rgb(255,255,255); fill-rule: nonzero; opacity: 1; visibility: hidden;" vector-effect="non-scaling-stroke"  x="-540" y="-540" rx="0" ry="0" width="1080" height="1080" />
</g>
<g transform="matrix(4.81 0 0 4.81 601.88 674.5)"  >
<path style="stroke: none; stroke-width: 1; stroke-dasharray: none; stroke-linecap: butt; stroke-dashoffset: 0; stroke-linejoin: miter; stroke-miterlimit: 4; fill: rgb(65,105,225); fill-rule: nonzero; opacity: 1;" vector-effect="non-scaling-stroke"  transform=" translate(-92.6, -111.08)" d="M 143.32 64.55 C 156.87 76.67 157.19 90.25 155.76 98.28999999999999 C 155.75 98.32 155.75 98.33999999999999 155.73999999999998 98.36999999999999 C 154.99999999999997 102.46999999999998 153.79999999999998 105.1 153.7 105.32999999999998 C 153.69 105.33999999999999 153.69 105.34999999999998 153.69 105.34999999999998 C 143.16 135.89999999999998 114.15 157.83999999999997 80.03 157.83999999999997 C 60.45 157.83999999999997 42.57 150.61999999999998 28.880000000000003 138.7 C 29.450000000000003 138.57999999999998 34.900000000000006 142.26 39.82 144.48999999999998 C 44.52 146.60999999999999 49.01 148.62999999999997 52.47 149.80999999999997 C 65.78999999999999 154.35999999999999 78.64 151.71999999999997 83.57 150.64 C 83.72 150.60999999999999 83.86 150.57999999999998 84 150.54999999999998 C 88.58 149.55999999999997 110.52 145.58999999999997 116.68 117.64999999999998 C 116.75 117.33999999999997 116.82000000000001 117.02999999999997 116.88000000000001 116.70999999999998 C 119.12 104.95999999999998 112.43 90.97999999999998 110.06 86.50999999999998 C 109.73 85.88999999999997 110.25 85.16999999999997 110.95 85.26999999999998 C 127.01 87.55999999999999 135.74 100.30999999999997 136.54 101.52999999999999 C 136.56 101.57 136.60999999999999 101.54999999999998 136.62 101.50999999999999 L 141.89000000000001 65.05999999999999 C 141.99 64.37999999999998 142.81 64.08999999999999 143.32000000000002 64.54999999999998 Z" stroke-linecap="round" />
</g>
<g transform="matrix(4.81 0 0 4.81 463.97 465.72)"  >
<path style="stroke: none; stroke-width: 1; stroke-dasharray: none; stroke-linecap: butt; stroke-dashoffset: 0; stroke-linejoin: miter; stroke-miterlimit: 4; fill: rgb(65,105,225); fill-rule: nonzero; opacity: 1;" vector-effect="non-scaling-stroke"  transform=" translate(-63.92, -67.66)" d="M 124.45 35.61 C 125.11 40.84 124.36 45.33 123.43 48.56 C 122.83000000000001 50.660000000000004 121.49000000000001 52.46 119.67 53.67 C 117.87 54.870000000000005 115.55 56.410000000000004 114.1 57.370000000000005 C 113.33 57.88 112.6 58.45 111.89999999999999 59.040000000000006 C 108.67999999999999 61.760000000000005 96.22999999999999 70.58000000000001 73.13999999999999 67.63000000000001 C 58.759999999999984 65.80000000000001 43.65999999999998 68.54 33.18999999999998 81.63000000000001 C 33.18999999999998 81.63000000000001 15.469999999999985 102.86000000000001 20.299999999999983 126.95000000000002 C 20.269999999999982 126.91000000000001 20.229999999999983 126.86000000000001 20.189999999999984 126.82000000000002 C 18.739999999999984 125.19000000000003 17.44999999999998 123.54000000000002 16.259999999999984 121.94000000000003 C 0.25 100.58 -0.19 69.95 9.98 49.77 C 19.56 30.75 32.51 16.95 53.41 11.12 C 71.5 6.069999999999999 91.44999999999999 8.26 106.41999999999999 15.44 C 108.07 16.23 109.77999999999999 16.849999999999998 111.24999999999999 17.919999999999998 L 118.84999999999998 23.459999999999997 C 120.56999999999998 24.72 121.90999999999998 26.429999999999996 122.65999999999998 28.419999999999998 C 123.40999999999998 30.419999999999998 124.08999999999999 32.839999999999996 124.44999999999999 35.61 Z" stroke-linecap="round" />
</g>
<g transform="matrix(4.81 0 0 4.81 595.12 669.14)"  >
<path style="stroke: rgb(175,203,255); stroke-width: 0.5; stroke-dasharray: none; stroke-linecap: round; stroke-dashoffset: 0; stroke-linejoin: round; stroke-miterlimit: 4; fill: rgb(175,203,255); fill-rule: nonzero; opacity: 1;" vector-effect="non-scaling-stroke"  transform=" translate(-91.2, -109.97)" d="M 154.36 97.17 C 154.36 97.17 154.35000000000002 97.22 154.34 97.25 C 153.6 101.35 152.4 103.98 152.3 104.21 C 152.29000000000002 104.22 152.29000000000002 104.22999999999999 152.29000000000002 104.22999999999999 C 141.76000000000002 134.78 112.75000000000003 156.72 78.63000000000002 156.72 C 59.050000000000026 156.72 41.17000000000002 149.5 27.480000000000025 137.57999999999998 C 28.050000000000026 137.45999999999998 33.50000000000003 141.14 38.42000000000002 143.36999999999998 C 43.34000000000002 145.59999999999997 47.60000000000002 147.50999999999996 51.060000000000024 148.7 C 64.79000000000002 153.39 78.01000000000002 150.44 82.59000000000003 149.44 C 87.17000000000003 148.45 109.11000000000003 144.48 115.27000000000004 116.53999999999999 C 115.34000000000003 116.22999999999999 115.41000000000004 115.91999999999999 115.47000000000004 115.6 C 117.71000000000004 103.85 111.02000000000004 89.86999999999999 108.65000000000003 85.39999999999999 C 108.32000000000004 84.77999999999999 108.84000000000003 84.05999999999999 109.54000000000003 84.16 C 125.60000000000004 86.45 134.33000000000004 99.19999999999999 135.13000000000002 100.42 C 135.15000000000003 100.46000000000001 135.20000000000002 100.44 135.21000000000004 100.4 L 140.48000000000005 63.95 C 140.58000000000004 63.27 141.40000000000003 62.980000000000004 141.91000000000005 63.440000000000005 C 155.46000000000006 75.56 155.78000000000006 89.14 154.35000000000005 97.18 Z" stroke-linecap="round" />
</g>
<g transform="matrix(4.81 0 0 4.81 601.85 674.53)"  >
<path style="stroke: rgb(65,105,225); stroke-width: 0.5; stroke-dasharray: none; stroke-linecap: round; stroke-dashoffset: 0; stroke-linejoin: round; stroke-miterlimit: 4; fill: rgb(65,105,225); fill-rule: nonzero; opacity: 1;" vector-effect="non-scaling-stroke"  transform=" translate(-92.6, -111.09)" d="M 155.76 98.29 C 155.76 98.29 155.75 98.34 155.73999999999998 98.37 C 154.99999999999997 102.47 153.79999999999998 105.10000000000001 153.7 105.33 C 153.69 105.34 153.69 105.35 153.69 105.35 C 143.16 135.9 114.15 157.84 80.03 157.84 C 60.45 157.84 42.57 150.62 28.880000000000003 138.7 C 29.450000000000003 138.57999999999998 34.900000000000006 142.26 39.82 144.48999999999998 C 44.739999999999995 146.71999999999997 49 148.62999999999997 52.46 149.82 C 66.19 154.51 79.41 151.56 83.99000000000001 150.56 C 88.57000000000001 149.57 110.51 145.6 116.67000000000002 117.66 C 116.74000000000001 117.35 116.81000000000002 117.03999999999999 116.87000000000002 116.72 C 119.11000000000001 104.97 112.42000000000002 90.99 110.05000000000001 86.52 C 109.72000000000001 85.89999999999999 110.24000000000001 85.17999999999999 110.94000000000001 85.28 C 127.00000000000001 87.57000000000001 135.73000000000002 100.32 136.53 101.54 C 136.55 101.58000000000001 136.6 101.56 136.61 101.52000000000001 L 141.88000000000002 65.07000000000001 C 141.98000000000002 64.39 142.8 64.10000000000001 143.31000000000003 64.56 C 156.86000000000004 76.68 157.18000000000004 90.26 155.75000000000003 98.30000000000001 Z" stroke-linecap="round" />
</g>
<g transform="matrix(4.81 0 0 4.81 397.81 462.3)"  >
<path style="stroke: rgb(65,105,225); stroke-width: 1; stroke-dasharray: none; stroke-linecap: butt; stroke-dashoffset: 0; stroke-linejoin: miter; stroke-miterlimit: 10; fill: rgb(65,105,225); fill-rule: nonzero; opacity: 1;" vector-effect="non-scaling-stroke"  transform=" translate(-50.14, -66.92)" d="M 34.72 83.35 C 34.72 83.35 42.87 64.78999999999999 73.28999999999999 67.33 L 57.879999999999995 50.5 C 57.879999999999995 50.5 22.519999999999996 67.49 27.459999999999994 75.01 L 32.39999999999999 82.53 L 34.71999999999999 83.35 Z" stroke-linecap="round" />
</g>
<g transform="matrix(4.81 0 0 4.81 397.26 512.72)"  >
<path style="stroke: none; stroke-width: 1; stroke-dasharray: none; stroke-linecap: butt; stroke-dashoffset: 0; stroke-linejoin: miter; stroke-miterlimit: 4; fill: rgb(100,149,237); fill-rule: nonzero; opacity: 1;" vector-effect="non-scaling-stroke"  transform=" translate(-50.02, -77.42)" d="M 73.92 66.29 L 67.5 72.23 C 65.89 73.72 64.26 75.22 62.89 76.94 C 61.39 78.82 60.21 80.94 59.05 83.03999999999999 C 57.559999999999995 85.72 56.07 88.41999999999999 55.14 91.32999999999998 C 54.69 92.73999999999998 54.27 94.32999999999998 53.01 95.08999999999999 C 52.089999999999996 95.63999999999999 50.94 95.58999999999999 49.87 95.49 C 47.15 95.24 44.459999999999994 94.75 41.81999999999999 94.03 C 41.42999999999999 93.92 41.019999999999996 93.8 40.739999999999995 93.51 C 40.419999999999995 93.19000000000001 40.31999999999999 92.72 40.24999999999999 92.27000000000001 C 40.019999999999996 90.85000000000001 39.949999999999996 89.4 40.03999999999999 87.96000000000001 C 40.08999999999999 87.19000000000001 40.17999999999999 86.39000000000001 39.92999999999999 85.66000000000001 C 39.449999999999996 84.28000000000002 37.93999999999999 83.61000000000001 36.599999999999994 83.03000000000002 C 33.879999999999995 81.85000000000001 31.259999999999994 80.41000000000001 28.799999999999994 78.75000000000001 C 28.259999999999994 78.38000000000001 27.709999999999994 78.00000000000001 27.309999999999995 77.48000000000002 C 26.779999999999994 76.80000000000001 26.529999999999994 75.95000000000002 26.369999999999994 75.11000000000001 C 25.339999999999993 69.80000000000001 27.629999999999995 63.98000000000001 32.00999999999999 60.80000000000001 C 32.85999999999999 60.180000000000014 33.78999999999999 59.66000000000001 34.80999999999999 59.430000000000014 C 35.89999999999999 59.19000000000001 37.02999999999999 59.30000000000001 38.139999999999986 59.430000000000014 C 43.40999999999998 60.110000000000014 48.569999999999986 61.48000000000001 53.759999999999984 62.610000000000014 C 55.77999999999999 63.05000000000001 57.80999999999998 63.45000000000002 59.87999999999998 63.55000000000001 C 61.47999999999998 63.63000000000001 63.08999999999998 63.53000000000001 64.69999999999999 63.610000000000014 C 67.76999999999998 63.77000000000001 70.76999999999998 64.60000000000001 73.71999999999998 65.46000000000001" stroke-linecap="round" />
</g>
<g transform="matrix(4.81 0 0 4.81 397.34 512.66)"  >
<path style="stroke: none; stroke-width: 1; stroke-dasharray: none; stroke-linecap: butt; stroke-dashoffset: 0; stroke-linejoin: miter; stroke-miterlimit: 4; fill: rgb(100,149,237); fill-rule: nonzero; opacity: 1;" vector-effect="non-scaling-stroke"  transform=" translate(-50.04, -77.41)" d="M 72.86 65.23 C 69.55 68.29 66.03 71.22 62.98 74.54 C 60.099999999999994 77.68 58.059999999999995 81.55000000000001 56.11 85.31 C 55.14 87.17 54.28 89.09 53.64 91.09 C 53.410000000000004 91.82000000000001 53.22 92.64 52.75 93.28 C 52.15 94.11 51.21 94.08 50.27 94.02 C 47.95 93.88 45.63 93.42999999999999 43.38 92.88 C 43.010000000000005 92.78999999999999 42.21 92.72999999999999 41.92 92.49 C 41.75 92.35 41.730000000000004 92.11999999999999 41.690000000000005 91.86 C 41.480000000000004 90.66 41.46000000000001 89.4 41.52 88.19 C 41.61000000000001 86.31 41.540000000000006 84.62 40.040000000000006 83.28 C 38.660000000000004 82.06 36.760000000000005 81.5 35.13000000000001 80.7 C 33.27000000000001 79.78 31.460000000000008 78.74000000000001 29.74000000000001 77.58 C 28.94000000000001 77.05 28.33000000000001 76.55 28.03000000000001 75.61 C 27.750000000000007 74.74 27.65000000000001 73.82 27.63000000000001 72.92 C 27.54000000000001 69.45 28.86000000000001 65.95 31.27000000000001 63.44 C 32.60000000000001 62.05 34.24000000000001 60.809999999999995 36.23000000000001 60.79 C 38.55000000000001 60.76 40.96000000000001 61.36 43.22000000000001 61.81 C 48.210000000000015 62.81 53.15000000000001 64.31 58.22000000000001 64.91 C 60.76000000000001 65.21 63.31000000000002 64.94 65.85000000000001 65.2 C 68.39 65.46000000000001 70.88000000000001 66.19 73.32000000000001 66.9 C 75.18 67.44000000000001 75.97000000000001 64.54 74.12 64.01 C 71.75 63.330000000000005 69.38000000000001 62.67 66.93 62.330000000000005 C 64.48 61.99000000000001 61.92000000000001 62.190000000000005 59.400000000000006 62.02 C 54.290000000000006 61.67 49.25000000000001 59.970000000000006 44.25000000000001 58.96 C 41.85000000000001 58.47 39.39000000000001 57.97 36.95000000000001 57.81 C 34.51000000000001 57.650000000000006 32.63000000000001 58.43 30.81000000000001 59.84 C 27.74000000000001 62.2 25.60000000000001 65.77000000000001 24.91000000000001 69.58 C 24.56000000000001 71.53999999999999 24.530000000000012 73.53999999999999 24.920000000000012 75.5 C 25.360000000000014 77.73 26.560000000000013 79.06 28.41000000000001 80.28 C 30.39000000000001 81.59 32.47000000000001 82.75 34.62000000000001 83.76 C 35.49000000000001 84.17 36.40000000000001 84.51 37.24000000000001 84.97 C 38.220000000000006 85.51 38.62000000000001 86.02 38.59000000000001 87.16 C 38.53000000000001 89.22 38.16000000000001 91.92 39.17000000000001 93.82 C 40.18000000000001 95.71999999999998 43.06000000000001 95.89999999999999 44.94000000000001 96.25999999999999 C 47.20000000000001 96.69 49.79000000000001 97.28999999999999 52.09000000000001 96.91999999999999 C 54.19000000000001 96.57999999999998 55.38000000000001 95.05999999999999 56.09000000000001 93.17999999999999 C 57.00000000000001 90.78999999999999 57.81000000000001 88.46 59.02000000000001 86.17999999999999 C 60.29000000000001 83.77999999999999 61.58000000000001 81.35 63.12000000000001 79.10999999999999 C 64.66000000000001 76.86999999999998 66.60000000000001 75.06999999999998 68.56000000000002 73.24999999999999 C 70.70000000000002 71.26999999999998 72.84000000000002 69.28999999999999 74.98000000000002 67.30999999999999 C 76.40000000000002 65.99999999999999 74.28000000000002 63.87999999999999 72.86000000000001 65.18999999999998 L 72.86000000000001 65.18999999999998 Z" stroke-linecap="round" />
</g>
<g transform="matrix(4.81 0 0 4.81 470.61 475.43)"  >
<path style="stroke: rgb(175,203,255); stroke-width: 1; stroke-dasharray: none; stroke-linecap: butt; stroke-dashoffset: 0; stroke-linejoin: miter; stroke-miterlimit: 10; fill: rgb(175,203,255); fill-rule: nonzero; opacity: 1;" vector-effect="non-scaling-stroke"  transform=" translate(-65.3, -69.68)" d="M 124.81 50.58 C 124.21000000000001 52.68 122.87 54.48 121.05 55.69 C 119.25 56.89 116.92999999999999 58.43 115.47999999999999 59.39 C 114.71 59.9 113.97999999999999 60.47 113.27999999999999 61.06 C 110.05999999999999 63.78 97.60999999999999 72.6 74.51999999999998 69.65 C 60.13999999999998 67.82000000000001 45.03999999999998 70.56 34.56999999999998 83.65 C 34.56999999999998 83.65 16.84999999999998 104.88000000000001 21.67999999999998 128.97 C 21.649999999999977 128.93 21.609999999999978 128.88 21.56999999999998 128.84 C 20.11999999999998 127.21000000000001 18.829999999999977 125.56 17.63999999999998 123.96000000000001 C 1.63 102.6 1.19 71.97 11.36 51.79 C 20.939999999999998 32.769999999999996 33.89 18.97 54.79 13.14 C 72.88 8.09 92.83 10.280000000000001 107.8 17.46 C 109.45 18.25 111.16 18.87 112.63 19.94 L 120.22999999999999 25.48 C 121.94999999999999 26.740000000000002 123.28999999999999 28.45 124.03999999999999 30.44 C 124.78999999999999 32.44 125.47 34.86 125.83 37.63 C 126.49 42.86 125.74 47.35 124.81 50.58 Z" stroke-linecap="round" />
</g>
<g transform="matrix(4.81 0 0 4.81 463.97 465.72)"  >
<path style="stroke: rgb(65,105,225); stroke-width: 1; stroke-dasharray: none; stroke-linecap: butt; stroke-dashoffset: 0; stroke-linejoin: miter; stroke-miterlimit: 10; fill: rgb(65,105,225); fill-rule: nonzero; opacity: 1;" vector-effect="non-scaling-stroke"  transform=" translate(-63.92, -67.66)" d="M 123.43 48.56 C 122.83000000000001 50.660000000000004 121.49000000000001 52.46 119.67 53.67 C 117.87 54.870000000000005 115.55 56.410000000000004 114.1 57.370000000000005 C 113.33 57.88 112.6 58.45 111.89999999999999 59.040000000000006 C 108.67999999999999 61.760000000000005 96.22999999999999 70.58000000000001 73.13999999999999 67.63000000000001 C 58.759999999999984 65.80000000000001 43.65999999999998 68.54 33.18999999999998 81.63000000000001 C 33.18999999999998 81.63000000000001 15.469999999999985 102.86000000000001 20.299999999999983 126.95000000000002 C 20.269999999999982 126.91000000000001 20.229999999999983 126.86000000000001 20.189999999999984 126.82000000000002 C 18.739999999999984 125.19000000000003 17.44999999999998 123.54000000000002 16.259999999999984 121.94000000000003 C 0.25 100.58 -0.19 69.95 9.98 49.77 C 19.56 30.75 32.51 16.95 53.41 11.12 C 71.5 6.069999999999999 91.44999999999999 8.26 106.41999999999999 15.44 C 108.07 16.23 109.77999999999999 16.849999999999998 111.24999999999999 17.919999999999998 L 118.84999999999998 23.459999999999997 C 120.56999999999998 24.72 121.90999999999998 26.429999999999996 122.65999999999998 28.419999999999998 C 123.40999999999998 30.419999999999998 124.08999999999999 32.839999999999996 124.44999999999999 35.61 C 125.10999999999999 40.84 124.35999999999999 45.33 123.42999999999999 48.56 Z" stroke-linecap="round" />
</g>
</svg>