<?xml version="1.0" encoding="UTF-8"?>
<svg xmlns="http://www.w3.org/2000/svg" version="1.1" viewBox="0 0 160 160">
  <!-- Generator: Adobe Illustrator 29.4.0, SVG Export Plug-In . SVG Version: 2.1.0 Build 152)  -->
  <defs>
    <style>
      .st0 {
        fill: #6495ED;
      }

      .st1, .st2 {
        stroke-linecap: round;
        stroke-linejoin: round;
        stroke-width: .5px;
      }

      .st1, .st3 {
        fill: #AFCBFF;
        stroke: #AFCBFF;
      }

      .st4 {
        fill: #abb9a8;
      }

      .st5, .st6, .st3 {
        stroke-miterlimit: 10;
      }

      .st5, .st7 {
        fill: #4169E1;
      }

      .st5, .st2 {
        stroke: #4169E1;
      }

      .st6 {
        fill: #4169E1;
        stroke: #4169E1;
      }

      .st8 {
        fill: #d0cfbb;
      }

      .st2 {
        fill: #4169E1;
      }
    </style>
  </defs>
  <g id="Layer_1">
    <g>
      <path class="st4" d="M153.12,52.96c3.11,8.41,4.81,17.5,4.81,26.99,0,6.32-.75,12.46-2.17,18.34,1.43-8.04,1.11-21.62-12.44-33.74-.51-.46-1.33-.17-1.43.51l-5.27,36.45s-.06.06-.08.02c-.8-1.22-9.53-13.97-25.59-16.26-.7-.1-1.22.62-.89,1.24,2.37,4.47,9.06,18.45,6.82,30.2-.06.32-.13.63-.2.94-6.16,27.94-28.1,31.91-32.68,32.9-.14.03-.28.06-.43.09-4.96,1-18.16,2.34-31.48-2.21-7.08-2.42-13.78-6.15-19.68-10.5,17.59-4.09,47.7-14.52,57.82-39.16,12.28-29.9,50.83-42.53,62.89-45.81Z"/>
      <path class="st7" d="M143.32,64.55c13.55,12.12,13.87,25.7,12.44,33.74-.01.03-.01.05-.02.08-.74,4.1-1.94,6.73-2.04,6.96-.01.01-.01.02-.01.02-10.53,30.55-39.54,52.49-73.66,52.49-19.58,0-37.46-7.22-51.15-19.14.57-.12,6.02,3.56,10.94,5.79,4.7,2.12,9.19,4.14,12.65,5.32,13.32,4.55,26.17,1.91,31.1.83.15-.03.29-.06.43-.09,4.58-.99,26.52-4.96,32.68-32.9.07-.31.14-.62.2-.94,2.24-11.75-4.45-25.73-6.82-30.2-.33-.62.19-1.34.89-1.24,16.06,2.29,24.79,15.04,25.59,16.26.02.04.07.02.08-.02l5.27-36.45c.1-.68.92-.97,1.43-.51Z"/>
      <path class="st8" d="M151.57,49.08c.55,1.27,1.07,2.57,1.55,3.88-12.06,3.28-50.61,15.91-62.89,45.81-10.12,24.64-40.23,35.07-57.82,39.16-1.25.29-2.42.54-3.53.77-1.35-1.18-2.67-2.41-3.94-3.68.94-.16,1.98-.34,3.09-.56,15.94-3.11,47.85-12.51,58.66-38.82,12.18-29.64,51.91-42.95,64.88-46.56Z"/>
      <path class="st7" d="M124.45,35.61c.66,5.23-.09,9.72-1.02,12.95-.6,2.1-1.94,3.9-3.76,5.11-1.8,1.2-4.12,2.74-5.57,3.7-.77.51-1.5,1.08-2.2,1.67-3.22,2.72-15.67,11.54-38.76,8.59-14.38-1.83-29.48.91-39.95,14,0,0-17.72,21.23-12.89,45.32-.03-.04-.07-.09-.11-.13-1.45-1.63-2.74-3.28-3.93-4.88C.25,100.58-.19,69.95,9.98,49.77,19.56,30.75,32.51,16.95,53.41,11.12c18.09-5.05,38.04-2.86,53.01,4.32,1.65.79,3.36,1.41,4.83,2.48l7.6,5.54c1.72,1.26,3.06,2.97,3.81,4.96.75,2,1.43,4.42,1.79,7.19Z"/>
      <path class="st4" d="M80.03,2.05c32.05,0,59.59,19.36,71.54,47.03-12.97,3.61-52.7,16.92-64.88,46.56-10.81,26.31-42.72,35.71-58.66,38.82-1.11.22-2.15.4-3.09.56C10.86,120.92,2.14,101.45,2.14,79.95,2.14,36.93,37.01,2.05,80.03,2.05ZM123.43,48.56c.93-3.23,1.68-7.72,1.02-12.95-.36-2.77-1.04-5.19-1.79-7.19-.75-1.99-2.09-3.7-3.81-4.96l-7.6-5.54c-1.47-1.07-3.18-1.69-4.83-2.48-14.97-7.18-34.92-9.37-53.01-4.32-20.9,5.83-33.85,19.63-43.43,38.65C-.19,69.95.25,100.58,16.26,121.94c1.19,1.6,2.48,3.25,3.93,4.88.04.04.08.09.11.13-4.83-24.09,12.89-45.32,12.89-45.32,10.47-13.09,25.57-15.83,39.95-14,23.09,2.95,35.54-5.87,38.76-8.59.7-.59,1.43-1.16,2.2-1.67,1.45-.96,3.77-2.5,5.57-3.7,1.82-1.21,3.16-3.01,3.76-5.11Z"/>
      <path class="st4" d="M52.09,148.43c13.32,4.55,26.52,3.21,31.48,2.21-4.93,1.08-17.78,3.72-31.1-.83-3.46-1.18-7.95-3.2-12.65-5.32-4.92-2.23-10.37-5.91-10.94-5.79,1.11-.23,2.28-.48,3.53-.77,5.9,4.35,12.6,8.08,19.68,10.5Z"/>
    </g>
    <path class="st8" d="M110.47,73.42s38.31-31.58,47.39,9.73c0,0,.75-18.44-4.74-30.19,0,0-20.18-2.03-42.65,20.46Z"/>
    <path class="st8" d="M5.12,97.5s19.82,46.86,70.06,20.29c0,0-34.71,13.52-45.77,20.29,0,0-17.96-9.43-24.29-40.59Z"/>
  </g>
  <g id="Layer_8">
    <path class="st1" d="M154.36,97.17s-.01.05-.02.08c-.74,4.1-1.94,6.73-2.04,6.96-.01.01-.01.02-.01.02-10.53,30.55-39.54,52.49-73.66,52.49-19.58,0-37.46-7.22-51.15-19.14.57-.12,6.02,3.56,10.94,5.79s9.18,4.14,12.64,5.33c13.73,4.69,26.95,1.74,31.53.74,4.58-.99,26.52-4.96,32.68-32.9.07-.31.14-.62.2-.94,2.24-11.75-4.45-25.73-6.82-30.2-.33-.62.19-1.34.89-1.24,16.06,2.29,24.79,15.04,25.59,16.26.02.04.07.02.08-.02l5.27-36.45c.1-.68.92-.97,1.43-.51,13.55,12.12,13.87,25.7,12.44,33.74Z"/>
  </g>
  <g id="Layer_6">
    <path class="st2" d="M155.76,98.29s-.01.05-.02.08c-.74,4.1-1.94,6.73-2.04,6.96-.01.01-.01.02-.01.02-10.53,30.55-39.54,52.49-73.66,52.49-19.58,0-37.46-7.22-51.15-19.14.57-.12,6.02,3.56,10.94,5.79s9.18,4.14,12.64,5.33c13.73,4.69,26.95,1.74,31.53.74,4.58-.99,26.52-4.96,32.68-32.9.07-.31.14-.62.2-.94,2.24-11.75-4.45-25.73-6.82-30.2-.33-.62.19-1.34.89-1.24,16.06,2.29,24.79,15.04,25.59,16.26.02.04.07.02.08-.02l5.27-36.45c.1-.68.92-.97,1.43-.51,13.55,12.12,13.87,25.7,12.44,33.74Z"/>
  </g>
  <g id="Layer_5">
    <path class="st6" d="M34.72,83.35s8.15-18.56,38.57-16.02l-15.41-16.83s-35.36,16.99-30.42,24.51l4.94,7.52,2.32.82Z"/>
    <path class="st8" d="M25.71,135.17c1.93,0,1.93-3,0-3s-1.93,3,0,3h0Z"/>
    <g>
      <path class="st0" d="M73.92,66.29l-6.42,5.94c-1.61,1.49-3.24,2.99-4.61,4.71-1.5,1.88-2.68,4-3.84,6.1-1.49,2.68-2.98,5.38-3.91,8.29-.45,1.41-.87,3-2.13,3.76-.92.55-2.07.5-3.14.4-2.72-.25-5.41-.74-8.05-1.46-.39-.11-.8-.23-1.08-.52-.32-.32-.42-.79-.49-1.24-.23-1.42-.3-2.87-.21-4.31.05-.77.14-1.57-.11-2.3-.48-1.38-1.99-2.05-3.33-2.63-2.72-1.18-5.34-2.62-7.8-4.28-.54-.37-1.09-.75-1.49-1.27-.53-.68-.78-1.53-.94-2.37-1.03-5.31,1.26-11.13,5.64-14.31.85-.62,1.78-1.14,2.8-1.37,1.09-.24,2.22-.13,3.33,0,5.27.68,10.43,2.05,15.62,3.18,2.02.44,4.05.84,6.12.94,1.6.08,3.21-.02,4.82.06,3.07.16,6.07.99,9.02,1.85"/>
      <path class="st0" d="M72.86,65.23c-3.31,3.06-6.83,5.99-9.88,9.31-2.88,3.14-4.92,7.01-6.87,10.77-.97,1.86-1.83,3.78-2.47,5.78-.23.73-.42,1.55-.89,2.19-.6.83-1.54.8-2.48.74-2.32-.14-4.64-.59-6.89-1.14-.37-.09-1.17-.15-1.46-.39-.17-.14-.19-.37-.23-.63-.21-1.2-.23-2.46-.17-3.67.09-1.88.02-3.57-1.48-4.91-1.38-1.22-3.28-1.78-4.91-2.58-1.86-.92-3.67-1.96-5.39-3.12-.8-.53-1.41-1.03-1.71-1.97-.28-.87-.38-1.79-.4-2.69-.09-3.47,1.23-6.97,3.64-9.48,1.33-1.39,2.97-2.63,4.96-2.65,2.32-.03,4.73.57,6.99,1.02,4.99,1,9.93,2.5,15,3.1,2.54.3,5.09.03,7.63.29s5.03.99,7.47,1.7c1.86.54,2.65-2.36.8-2.89-2.37-.68-4.74-1.34-7.19-1.68s-5.01-.14-7.53-.31c-5.11-.35-10.15-2.05-15.15-3.06-2.4-.49-4.86-.99-7.3-1.15s-4.32.62-6.14,2.03c-3.07,2.36-5.21,5.93-5.9,9.74-.35,1.96-.38,3.96.01,5.92.44,2.23,1.64,3.56,3.49,4.78,1.98,1.31,4.06,2.47,6.21,3.48.87.41,1.78.75,2.62,1.21.98.54,1.38,1.05,1.35,2.19-.06,2.06-.43,4.76.58,6.66s3.89,2.08,5.77,2.44c2.26.43,4.85,1.03,7.15.66,2.1-.34,3.29-1.86,4-3.74.91-2.39,1.72-4.72,2.93-7,1.27-2.4,2.56-4.83,4.1-7.07s3.48-4.04,5.44-5.86c2.14-1.98,4.28-3.96,6.42-5.94,1.42-1.31-.7-3.43-2.12-2.12h0Z"/>
    </g>
    <path class="st8" d="M25.37,134.8c1.93,0,1.93-3,0-3s-1.93,3,0,3h0Z"/>
    <path class="st8" d="M25.3,134.7c1.93,0,1.93-3,0-3s-1.93,3,0,3h0Z"/>
    <path class="st8" d="M26.06,135.47c1.93,0,1.93-3,0-3s-1.93,3,0,3h0Z"/>
    <path class="st8" d="M25.04,134.47c1.93,0,1.93-3,0-3s-1.93,3,0,3h0Z"/>
    <path class="st8" d="M25.19,134.62c1.93,0,1.93-3,0-3s-1.93,3,0,3h0Z"/>
    <path class="st8" d="M25.48,134.93c1.93,0,1.93-3,0-3s-1.93,3,0,3h0Z"/>
    <path class="st8" d="M25.94,135.38c1.93,0,1.93-3,0-3s-1.93,3,0,3h0Z"/>
  </g>
  <g id="Layer_7">
    <path class="st3" d="M124.81,50.58c-.6,2.1-1.94,3.9-3.76,5.11-1.8,1.2-4.12,2.74-5.57,3.7-.77.51-1.5,1.08-2.2,1.67-3.22,2.72-15.67,11.54-38.76,8.59-14.38-1.83-29.48.91-39.95,14,0,0-17.72,21.23-12.89,45.32-.03-.04-.07-.09-.11-.13-1.45-1.63-2.74-3.28-3.93-4.88C1.63,102.6,1.19,71.97,11.36,51.79c9.58-19.02,22.53-32.82,43.43-38.65,18.09-5.05,38.04-2.86,53.01,4.32,1.65.79,3.36,1.41,4.83,2.48l7.6,5.54c1.72,1.26,3.06,2.97,3.81,4.96.75,2,1.43,4.42,1.79,7.19.66,5.23-.09,9.72-1.02,12.95Z"/>
  </g>
  <g id="Layer_4">
    <path class="st5" d="M123.43,48.56c-.6,2.1-1.94,3.9-3.76,5.11-1.8,1.2-4.12,2.74-5.57,3.7-.77.51-1.5,1.08-2.2,1.67-3.22,2.72-15.67,11.54-38.76,8.59-14.38-1.83-29.48.91-39.95,14,0,0-17.72,21.23-12.89,45.32-.03-.04-.07-.09-.11-.13-1.45-1.63-2.74-3.28-3.93-4.88C.25,100.58-.19,69.95,9.98,49.77,19.56,30.75,32.51,16.95,53.41,11.12c18.09-5.05,38.04-2.86,53.01,4.32,1.65.79,3.36,1.41,4.83,2.48l7.6,5.54c1.72,1.26,3.06,2.97,3.81,4.96.75,2,1.43,4.42,1.79,7.19.66,5.23-.09,9.72-1.02,12.95Z"/>
  </g>
</svg>